#!OML:ASF F:\VICON\USERDATA\INSTALL\rory3\rory3.ASF
:FULLY-SPECIFIED
:DEGREES
224
root 6.70544 15.9597 -35.4179 22.5122 -23.3063 -1.3094
lowerback -14.7821 1.31058 -2.97586
upperback -6.45657 2.07701 -0.662567
thorax 1.37593 1.05153 1.30735
lowerneck -14.5565 -2.17644 -0.479734
upperneck 40.7474 -5.08462 3.3069
head 17.5955 -1.81529 0.611002
rclavicle -3.51103e-014 -2.54444e-014
rhumerus -37.6101 -3.64564 -82.328
rradius 14.2265
rwrist 4.76337
rhand 1.32762 12.0907
rfingers 7.12502
rthumb 26.8614 -16.0211
lclavicle -3.51103e-014 -2.54444e-014
lhumerus -38.6538 1.97183 83.3616
lradius 21.6313
lwrist -6.76458
lhand -0.726122 15.109
lfingers 7.12502
lthumb 24.8947 43.5079
rfemur -30.6794 -20.4168 29.861
rtibia 60.8433
rfoot 17.425 -36.5963
rtoes 44.2163
lfemur -40.9667 -0.315704 -30.5297
ltibia 42.9061
lfoot -43.9114 28.6505
ltoes 9.61624
225
root 6.70817 15.9601 -35.4154 22.5583 -23.3005 -1.28444
lowerback -14.5935 1.1636 -2.98228
upperback -6.75455 1.86263 -0.527426
thorax 0.965748 0.954105 1.40889
lowerneck -13.8215 -2.01763 -0.803942
upperneck 40.7939 -4.73485 3.31242
head 17.4254 -1.73951 0.746026
rclavicle 3.37561e-014 1.94809e-014
rhumerus -38.1231 -2.58113 -82.6725
rradius 14.3902
rwrist 4.37971
rhand 1.48852 11.8406
rfingers 7.12502
rthumb 27.0153 -16.2474
lclavicle 3.37561e-014 1.94809e-014
lhumerus -39.1486 2.00998 83.5877
lradius 21.6013
lwrist -6.86984
lhand -0.147842 15.2175
lfingers 7.12502
lthumb 25.4488 43.5385
rfemur -30.6982 -20.4112 29.8429
rtibia 60.8871
rfoot 16.7872 -36.5859
rtoes 44.8693
lfemur -41.0038 -0.658664 -30.4737
ltibia 42.9231
lfoot -44.478 28.3034
ltoes 10.9396
226
root 6.7128 15.9594 -35.4047 22.4786 -23.4048 -1.36587
lowerback -14.9122 1.16913 -2.78477
upperback -6.45388 1.86419 -0.547503
thorax 1.46005 0.941345 1.291
lowerneck -13.7725 -1.95789 -0.762335
upperneck 40.6379 -4.62826 3.27828
head 17.3166 -1.69705 0.741452
rclavicle 4.4975e-015 1.82882e-014
rhumerus -37.7663 -2.1287 -83.0495
rradius 14.4161
rwrist 4.18021
rhand 1.53725 11.6434
rfingers 7.12502
rthumb 27.0619 -16.4374
lclavicle 4.4975e-015 1.82882e-014
lhumerus -38.686 1.5761 83.8934
lradius 21.4906
lwrist -7.04502
lhand 0.0932946 15.3767
lfingers 7.12502
lthumb 25.6797 43.6646
rfemur -30.4572 -20.4066 29.7825
rtibia 60.8482
rfoot 16.428 -36.6217
rtoes 45.3582
lfemur -40.8647 -0.49344 -30.4895
ltibia 42.9332
lfoot -43.5389 29.4622
ltoes 7.93405
227
root 6.70669 15.9678 -35.4491 23.299 -22.6991 -1.01172
lowerback -14.7138 0.767827 -3.46209
upperback -7.17248 1.38892 -0.404259
thorax 0.59121 0.738123 1.7342
lowerneck -13.4107 -1.90888 -0.796667
upperneck 40.8205 -4.50802 3.16103
head 17.3171 -1.67556 0.721793
rclavicle -3.53712e-014 1.47101e-014
rhumerus -38.4925 -0.986094 -83.5253
rradius 14.8776
rwrist 3.29862
rhand 1.56606 11.3818
rfingers 7.12502
rthumb 27.0895 -16.6947
lclavicle -3.53712e-014 1.47101e-014
lhumerus -39.0468 1.16626 84.3151
lradius 21.4229
lwrist -7.22327
lhand 0.502772 15.8781
lfingers 7.12502
lthumb 26.0719 44.1087
rfemur -31.8891 -20.7076 30.4076
rtibia 60.9665
rfoot 16.2133 -36.8423
rtoes 45.0927
lfemur -42.0957 0.160549 -30.9338
ltibia 42.9247
lfoot -42.2242 28.5781
ltoes 8.00339
228
root 6.71338 15.9611 -35.4061 22.8833 -23.4567 -1.2232
lowerback -14.8345 1.08029 -3.09054
upperback -6.89465 1.76801 -0.506065
thorax 0.945235 0.90951 1.48188
lowerneck -13.2048 -1.86287 -0.770504
upperneck 40.7135 -4.45891 3.21389
head 17.2026 -1.6491 0.751219
rclavicle -1.16662e-014 -3.1408e-014
rhumerus -38.6467 -0.183681 -84.0839
rradius 15.2199
rwrist 2.70164
rhand 1.67077 11.3714
rfingers 7.12502
rthumb 27.1897 -16.6894
lclavicle -1.16662e-014 -3.1408e-014
lhumerus -38.8052 0.361409 84.7947
lradius 21.4818
lwrist -6.53763
lhand 0.969114 17.0243
lfingers 7.12502
lthumb 26.5183 45.1884
rfemur -31.0121 -20.5281 29.8884
rtibia 60.8726
rfoot 16.7073 -36.3928
rtoes 45.1337
lfemur -41.3771 -0.297081 -30.7257
ltibia 42.9595
lfoot -43.8092 28.8174
ltoes 9.12426
229
root 6.71155 15.9677 -35.426 23.2339 -23.0231 -1.15185
lowerback -14.9476 0.888706 -3.11145
upperback -7.0312 1.51779 -0.533222
thorax 0.872828 0.786071 1.42829
lowerneck -12.9195 -1.84973 -0.716398
upperneck 40.5606 -4.47176 3.27682
head 17.0446 -1.64474 0.768959
rclavicle 1.57288e-014 3.29983e-014
rhumerus -38.7342 0.52682 -84.698
rradius 15.4728
rwrist 2.10543
rhand 1.77137 11.3005
rfingers 7.12502
rthumb 27.2859 -16.7453
lclavicle 1.57288e-014 3.29983e-014
lhumerus -38.641 -0.455915 85.1907
lradius 21.7062
lwrist -5.86486
lhand 1.20184 17.8298
lfingers 7.12502
lthumb 26.741 45.9601
rfemur -31.5045 -20.8159 30.255
rtibia 60.8541
rfoot 16.7688 -36.2891
rtoes 44.997
lfemur -41.9219 0.1944 -30.8597
ltibia 43.0028
lfoot -42.8207 28.249
ltoes 8.56759
230
root 6.70956 15.969 -35.4127 23.3574 -23.4247 -1.66849
lowerback -14.8919 1.09854 -2.79191
upperback -6.91011 1.75224 -0.437755
thorax 0.968685 0.896072 1.38406
lowerneck -13.3261 -1.88155 -0.570568
upperneck 40.6927 -4.51465 3.1198
head 17.2149 -1.65274 0.660506
rclavicle 4.55962e-015 -1.35174e-014
rhumerus -38.5052 0.681834 -84.8278
rradius 15.3967
rwrist 2.16177
rhand 1.8772 11.4866
rfingers 7.12502
rthumb 27.3871 -16.5432
lclavicle 4.55962e-015 -1.35174e-014
lhumerus -38.3041 -1.20431 85.6701
lradius 21.8668
lwrist -5.58563
lhand 1.55 18.3767
lfingers 7.12502
lthumb 27.0742 46.4555
rfemur -31.1884 -20.3419 30.4852
rtibia 60.7129
rfoot 16.6759 -36.3643
rtoes 44.8373
lfemur -41.8768 0.166272 -30.3389
ltibia 43.12
lfoot -43.198 28.8812
ltoes 7.87215
231
root 6.69456 15.9711 -35.411 23.3956 -24.0359 -1.87013
lowerback -14.9775 1.19505 -3.01625
upperback -6.73869 1.91526 -0.373067
thorax 1.17659 0.978583 1.60782
lowerneck -13.6552 -1.85529 -0.545022
upperneck 40.7509 -4.48364 3.10345
head 17.3312 -1.63283 0.650545
rclavicle -3.66012e-014 3.57812e-015
rhumerus -38.3128 1.65268 -85.4569
rradius 15.6188
rwrist 1.43873
rhand 2.10122 11.5631
rfingers 7.12502
rthumb 27.6014 -16.4327
lclavicle -3.66012e-014 3.57812e-015
lhumerus -38.0113 -2.47546 86.4016
lradius 22.0874
lwrist -4.6813
lhand 1.67739 18.3671
lfingers 7.12502
lthumb 27.196 46.4269
rfemur -30.9221 -19.7132 30.4053
rtibia 60.612
rfoot 16.0636 -36.675
rtoes 44.9812
lfemur -41.8349 0.831932 -30.3499
ltibia 43.1608
lfoot -43.4371 28.5257
ltoes 8.65669
232
root 6.68802 15.9729 -35.4187 24.1979 -24.9732 -2.06081
lowerback -15.1646 1.43001 -3.3359
upperback -7.30863 2.25008 -0.32446
thorax 0.639631 1.16534 1.88276
lowerneck -13.1686 -1.85245 -0.673348
upperneck 40.8645 -4.46514 3.14132
head 17.2734 -1.64943 0.700343
rclavicle 4.99322e-014 2.06736e-014
rhumerus -39.1891 3.00413 -86.2015
rradius 16.24
rwrist 0.352441
rhand 2.49968 11.4457
rfingers 7.12502
rthumb 27.9824 -16.4886
lclavicle 4.99322e-014 2.06736e-014
lhumerus -38.7669 -3.90594 87.4234
lradius 22.7266
lwrist -4.11872
lhand 1.46289 18.8527
lfingers 7.12502
lthumb 26.9908 46.9445
rfemur -31.7462 -18.73 30.4694
rtibia 60.6327
rfoot 15.7359 -36.8626
rtoes 45.429
lfemur -42.733 1.25861 -30.4471
ltibia 43.252
lfoot -43.6435 28.7684
ltoes 8.95722
233
root 6.69123 15.9737 -35.4083 23.5923 -24.4137 -1.63197
lowerback -14.9839 1.22719 -3.28703
upperback -7.09304 1.98321 -0.522835
thorax 0.796959 1.02352 1.60731
lowerneck -12.8718 -1.79544 -0.562587
upperneck 40.6726 -4.42615 3.21449
head 17.0868 -1.6137 0.721947
rclavicle -3.06625e-014 1.35174e-014
rhumerus -39.3682 4.13444 -87.204
rradius 16.7545
rwrist -0.673034
rhand 2.48791 10.9753
rfingers 7.12502
rthumb 27.9711 -16.9608
lclavicle -3.06625e-014 1.35174e-014
lhumerus -38.7298 -4.68836 87.6327
lradius 23.3126
lwrist -4.52931
lhand 2.23604 19.7447
lfingers 7.12502
lthumb 27.7303 47.7198
rfemur -31.1835 -19.5726 30.1149
rtibia 60.5664
rfoot 16.2497 -36.5309
rtoes 44.8504
lfemur -42.1578 0.796713 -30.6052
ltibia 43.1943
lfoot -43.7626 28.3121
ltoes 9.38395
234
root 6.68874 15.9768 -35.4165 24.318 -25.0013 -2.02273
lowerback -15.1298 1.41403 -3.41249
upperback -7.22823 2.24227 -0.371636
thorax 0.705363 1.16083 1.87597
lowerneck -13.6545 -1.81063 -0.458259
upperneck 40.9707 -4.41932 3.00025
head 17.4477 -1.60653 0.601065
rclavicle -4.40308e-014 1.51076e-014
rhumerus -39.4723 5.73906 -88.1132
rradius 17.4573
rwrist -1.93724
rhand 2.47542 10.3434
rfingers 7.12502
rthumb 27.9592 -17.5946
lclavicle -4.40308e-014 1.51076e-014
lhumerus -38.5395 -5.532 88.3135
lradius 23.6313
lwrist -5.428
lhand 2.73011 20.2433
lfingers 7.12502
lthumb 28.2026 48.1414
rfemur -31.8513 -18.9149 30.4984
rtibia 60.5591
rfoot 16.3182 -36.311
rtoes 44.8162
lfemur -42.8845 0.850681 -30.3059
ltibia 43.2045
lfoot -44.0061 28.7982
ltoes 8.94649
235
root 6.69194 15.9798 -35.4062 24.0587 -24.57 -1.85662
lowerback -15.1707 1.30077 -3.29583
upperback -6.68847 2.10413 -0.516444
thorax 1.31652 1.073 1.6509
lowerneck -14.5657 -1.89313 -0.293054
upperneck 40.916 -4.58757 2.96762
head 17.6561 -1.6362 0.514249
rclavicle -1.11568e-014 1.78906e-014
rhumerus -38.9771 7.58537 -89.4759
rradius 18.3014
rwrist -3.52087
rhand 2.52697 9.63724
rfingers 7.12502
rthumb 28.0085 -18.2927
lclavicle -1.11568e-014 1.78906e-014
lhumerus -37.8737 -7.40979 89.1126
lradius 23.9074
lwrist -5.62736
lhand 2.48644 19.9847
lfingers 7.12502
lthumb 27.9697 47.921
rfemur -31.4701 -19.386 30.4228
rtibia 60.4105
rfoot 15.3307 -36.7041
rtoes 45.3779
lfemur -42.567 0.832519 -30.4341
ltibia 43.1313
lfoot -43.6802 28.4346
ltoes 9.12022
236
root 6.6909 15.9847 -35.4084 24.1012 -24.2723 -1.70743
lowerback -14.9869 1.07393 -3.4879
upperback -6.95618 1.81004 -0.365727
thorax 0.938702 0.940755 1.86118
lowerneck -14.0632 -1.78272 -0.485997
upperneck 41.1198 -4.3338 2.89005
head 17.6345 -1.58361 0.567574
rclavicle 5.96354e-016 1.19271e-015
rhumerus -39.8895 9.44882 -90.4364
rradius 19.237
rwrist -4.39125
rhand 2.98444 9.27747
rfingers 7.12502
rthumb 28.4457 -18.5803
lclavicle 5.96354e-016 1.19271e-015
lhumerus -38.626 -8.33315 89.9657
lradius 23.4198
lwrist -7.32144
lhand 1.10571 16.8887
lfingers 7.12502
lthumb 26.649 45.0329
rfemur -31.5063 -19.5391 30.4699
rtibia 60.302
rfoot 14.6084 -36.9446
rtoes 46.1251
lfemur -42.6219 0.74973 -30.5195
ltibia 43.087
lfoot -43.2763 28.5195
ltoes 9.1409
237
root 6.69599 15.9805 -35.376 23.839 -24.4855 -1.85758
lowerback -14.9059 1.29785 -3.26896
upperback -6.39788 2.09994 -0.544758
thorax 1.48541 1.06609 1.60341
lowerneck -15.5028 -1.86928 -0.0418682
upperneck 41.2402 -4.62249 2.85025
head 18.0859 -1.60535 0.398828
rclavicle -3.35201e-014 -1.07344e-014
rhumerus -39.4221 10.3996 -91.2634
rradius 19.9833
rwrist -4.85284
rhand 2.91429 8.69752
rfingers 7.12502
rthumb 28.3787 -19.1714
lclavicle -3.35201e-014 -1.07344e-014
lhumerus -37.7973 -10.5538 90.7107
lradius 24.1792
lwrist -6.0787
lhand 2.02631 17.4851
lfingers 7.12502
lthumb 27.5298 45.4923
rfemur -30.8581 -19.5671 30.235
rtibia 60.143
rfoot 14.9322 -36.6666
rtoes 46.1642
lfemur -42.1301 0.579969 -30.3709
ltibia 43.0271
lfoot -43.8189 28.4578
ltoes 10.9764
